<svg xmlns="http://www.w3.org/2000/svg" viewBox="0 0 400 300" role="img" aria-labelledby="title desc">
  <title id="title">Generic pet image 3</title>
  <desc id="desc">A simple illustrated pet placeholder with a paw icon.</desc>
  <defs>
    <linearGradient id="bg" x1="0" y1="0" x2="1" y2="1">
      <stop offset="0%" stop-color="#e7f0ff"/>
      <stop offset="100%" stop-color="#86a8e7"/>
    </linearGradient>
  </defs>
  <rect width="400" height="300" rx="24" fill="url(#bg)"/>
  <circle cx="122" cy="124" r="40" fill="#ffffff" opacity="0.9"/>
  <ellipse cx="122" cy="188" rx="76" ry="52" fill="#ffffff" opacity="0.9"/>
  <circle cx="103" cy="112" r="9" fill="#0b1f3a"/>
  <circle cx="142" cy="112" r="9" fill="#0b1f3a"/>
  <path d="M110 136c10 8 20 8 30 0" fill="none" stroke="#0b1f3a" stroke-width="6" stroke-linecap="round"/>
  <g fill="#0b1f3a" opacity="0.8">
    <circle cx="285" cy="102" r="16"/>
    <circle cx="320" cy="90" r="12"/>
    <circle cx="337" cy="119" r="12"/>
    <circle cx="300" cy="130" r="12"/>
    <path d="M278 118c0-15 12-27 27-27 10 0 19 5 24 13 2 3 0 8-4 9-9 3-17 10-20 19-1 4-6 6-9 4-10-4-18-15-18-18z"/>
  </g>
</svg>