<svg xmlns="http://www.w3.org/2000/svg" viewBox="0 0 400 300" role="img" aria-labelledby="title desc">
  <title id="title">Generic pet image 1</title>
  <desc id="desc">A simple illustrated pet placeholder with a paw icon.</desc>
  <defs>
    <linearGradient id="bg" x1="0" y1="0" x2="1" y2="1">
      <stop offset="0%" stop-color="#d9eef7"/>
      <stop offset="100%" stop-color="#8ecae6"/>
    </linearGradient>
  </defs>
  <rect width="400" height="300" rx="24" fill="url(#bg)"/>
  <circle cx="115" cy="124" r="38" fill="#ffffff" opacity="0.88"/>
  <ellipse cx="115" cy="188" rx="74" ry="54" fill="#ffffff" opacity="0.88"/>
  <circle cx="94" cy="112" r="10" fill="#0b1f3a"/>
  <circle cx="136" cy="112" r="10" fill="#0b1f3a"/>
  <path d="M107 136c8 8 18 8 26 0" fill="none" stroke="#0b1f3a" stroke-width="6" stroke-linecap="round"/>
  <g fill="#0b1f3a" opacity="0.8">
    <circle cx="285" cy="104" r="16"/>
    <circle cx="320" cy="92" r="12"/>
    <circle cx="337" cy="121" r="12"/>
    <circle cx="300" cy="132" r="12"/>
    <path d="M278 120c0-15 12-27 27-27 10 0 19 5 24 13 2 3 0 8-4 9-9 3-17 10-20 19-1 4-6 6-9 4-10-4-18-15-18-18z"/>
  </g>
</svg>